<svg xmlns="http://www.w3.org/2000/svg" viewBox="0 0 87.51 73.9"><defs><style>.cls-1{fill:#5a6e78;}</style></defs><title>Maschine 9</title><g id="Ebene_2" data-name="Ebene 2"><g id="_ŽÓť_5" data-name="—ŽÓť_5"><path class="cls-1" d="M19.5,30.05V50.51h1.89V2c0-1.12-1.74-2-3.89-2s-3.89.9-3.89,2v23.2h2C17.77,25.22,19.5,27.35,19.5,30.05Zm5.78,20.46H72V47H25.28ZM83.62,2c0-1.12-1.74-2-3.89-2s-3.89.9-3.89,2V50.51h7.78ZM73.84,3.89H62.28V15.56H73.84ZM33,3.89H23.39V15.56H33Zm4,15.56H58.34a2,2,0,0,0,1.94-1.95V2A2,2,0,0,0,58.34,0H37a2,2,0,0,0-2,2V17.5A2,2,0,0,0,37,19.45ZM54.45,3.89a1.95,1.95,0,1,1-1.94,1.94A1.94,1.94,0,0,1,54.45,3.89Zm-9.72,0a5.84,5.84,0,1,1-5.84,5.83A5.83,5.83,0,0,1,44.73,3.89Zm0,3.89a1.94,1.94,0,0,1,1.67,1h2.08a3.87,3.87,0,0,0-7.51,0h2.08A1.94,1.94,0,0,1,44.73,7.78Zm0,5.83a3.89,3.89,0,0,0,3.75-2.91H46.4a1.93,1.93,0,0,1-3.35,0H41A3.89,3.89,0,0,0,44.73,13.61ZM48.62,33,50.56,31V29.22H46.67V31Zm3.89-11.53H44.73v5.77h7.78Zm-35,34.06V30.05c0-1.55-.87-2.83-1.94-2.83H2C.87,27.22,0,28.5,0,30.05V55.51c0,1.56.87,2.83,2,2.83H15.56C16.63,58.34,17.5,57.07,17.5,55.51ZM5.83,54.45a1.95,1.95,0,1,1,2-1.94A1.94,1.94,0,0,1,5.83,54.45Zm0-5.83a1.95,1.95,0,1,1,2-1.95A1.94,1.94,0,0,1,5.83,48.62Zm0-5.84a1.95,1.95,0,1,1,2-1.94A1.94,1.94,0,0,1,5.83,42.78Zm5.84,11.67a1.95,1.95,0,1,1,1.94-1.94A1.94,1.94,0,0,1,11.67,54.45Zm0-5.83a1.95,1.95,0,1,1,1.94-1.95A1.95,1.95,0,0,1,11.67,48.62Zm0-5.84a1.95,1.95,0,1,1,1.94-1.94A1.94,1.94,0,0,1,11.67,42.78ZM13.61,35H3.89V31.11h9.72ZM19.5,52.51v3c0,2.71-1.73,4.83-3.94,4.83H9.72V73.9H33.06L37,64.17H60.28l3.89,9.73H87.51V52.51ZM80.7,68.06H69a1,1,0,0,1,0-1.94H80.7a1,1,0,1,1,0,1.94Zm0-3.89H69a1,1,0,0,1,0-1.94H80.7a1,1,0,0,1,0,1.94Zm0-3.89H69a1,1,0,0,1,0-1.94H80.7a1,1,0,0,1,0,1.94Z"/></g></g></svg>