<svg xmlns="http://www.w3.org/2000/svg" viewBox="0 0 71.51 84.13"><defs><style>.cls-1{fill:#5a6e78;}</style></defs><title>Maschine 3</title><g id="Ebene_2" data-name="Ebene 2"><g id="_ŽÓť_11" data-name="—ŽÓť_11"><path class="cls-1" d="M16.83,14.72H44.17a2.11,2.11,0,0,0,2.1-2.1v-2.1a2.11,2.11,0,0,0-2.1-2.11H16.83a2.12,2.12,0,0,0-2.11,2.11v2.1A2.11,2.11,0,0,0,16.83,14.72ZM44.17,2.1C44.17.94,42.29,0,40,0s-4.2.94-4.2,2.1V6.41h8.41ZM29.45,16.72H16.83V31.55H29.45ZM23.14,46.28l2.1-2.11V42H21v2.21Zm4.21-12.73H18.93V40h8.42ZM9.46,30.66c.59,0,1.06-.84,1.06-1.88V24.19h2.1v3.15h2.21V18.93H12.62v3.15h-2.1V17.49c0-1-.47-1.88-1.06-1.88s-1.05.84-1.05,1.88V28.78C8.41,29.82,8.88,30.66,9.46,30.66Zm22-3.32H67.31V18.93H31.45Zm23.24,2v17H63.1v-17ZM7.36,65.21a1.06,1.06,0,0,0,1-1.06v-2.1h2.11v3.16H46.38V56.79H10.52V60H8.41V57.84a1.05,1.05,0,1,0-2.1,0v6.31A1.06,1.06,0,0,0,7.36,65.21Zm39,2H15.45l30.93,7.51ZM0,79.93v4.2H71.51v-4.2ZM57.41,57.66a2.1,2.1,0,1,0,3,0A2.09,2.09,0,0,0,57.41,57.66ZM51,48.38a2.41,2.41,0,0,0-2.62,2.1V77.83s0,.06,0,.1h21s0-.07,0-.1V50.48a2.41,2.41,0,0,0-2.63-2.1Zm4.74,23.13a2.1,2.1,0,1,1,2.1-2.1A2.09,2.09,0,0,1,55.74,71.51Zm.18-9.39a4.2,4.2,0,0,1,5-6.63l2.42-.8-.81,2.41a4.2,4.2,0,0,1-6.63,5Zm6.13,9.39a2.1,2.1,0,1,1,2.1-2.1A2.1,2.1,0,0,1,62.05,71.51ZM14.72,54.79H31.55V50.58H14.72Z"/></g></g></svg>