<svg xmlns="http://www.w3.org/2000/svg" viewBox="0 0 89.45 77.79"><defs><style>.cls-1{fill:#5a6e78;}</style></defs><title>Maschine 8</title><g id="Ebene_2" data-name="Ebene 2"><g id="_ŽÓť_6" data-name="—ŽÓť_6"><path class="cls-1" d="M38.89,42.73H60.28V38.84H38.89ZM64.12,3.89H48.62v7.78h15.5ZM54.45,25.28l1.95-2V21.45H52.51v1.88Zm3.89-11.61H50.56v5.78h7.78ZM37,35h3.89V23.33H37V21.39H33.06V37H37ZM9.15,36.61a1.94,1.94,0,1,0-2.75,0A1.94,1.94,0,0,0,9.15,36.61ZM31.11,0H17.5L0,19.45V56.39H1.89v-2H31.11ZM16.7,32.49a3.87,3.87,0,0,1,4.64-.63l2.23-.75-.74,2.24a3.88,3.88,0,1,1-6.13-.86ZM5,32.49a3.87,3.87,0,0,1,4.64-.63l2.23-.75-.74,2.24A3.88,3.88,0,1,1,5,32.49Zm8.58,12.24a1.69,1.69,0,0,1-.5-.08l-2,2a4,4,0,1,1-1.38-1.37l2-2a2,2,0,0,1-.07-.5,1.95,1.95,0,1,1,1.94,1.95Zm11.67,0a1.69,1.69,0,0,1-.5-.08l-2,2a4,4,0,1,1-1.38-1.37l2-2a1.64,1.64,0,0,1-.08-.5,1.95,1.95,0,1,1,2,1.95Zm-4.46-8.12a1.94,1.94,0,1,0-2.75,0A1.94,1.94,0,0,0,20.82,36.61ZM75.84,0H66.12V44.73H35v9.72H89.45V40.84Zm2,46.67a1.95,1.95,0,1,1,1.94-1.94A1.94,1.94,0,0,1,77.79,46.67Zm0-5.83a1.95,1.95,0,1,1,1.94-2A1.95,1.95,0,0,1,77.79,40.84Zm-73.9,37H23.8l4-7.78H63.62l4,7.78H87.51V56.39H3.89ZM10.7,60.28H22.36a1,1,0,0,1,0,1.95H10.7a1,1,0,1,1,0-1.95Zm0,3.89H22.36a1,1,0,0,1,0,2H10.7a1,1,0,1,1,0-2Zm0,3.89H22.36a1,1,0,0,1,0,2H10.7a1,1,0,1,1,0-2Z"/></g></g></svg>