<svg xmlns="http://www.w3.org/2000/svg" viewBox="0 0 71.51 84.13"><defs><style>.cls-1{fill:#5a6e78;}</style></defs><title>Maschine 5</title><g id="Ebene_2" data-name="Ebene 2"><g id="_ŽÓť_9" data-name="—ŽÓť_9"><path class="cls-1" d="M21,40l2.11-2.1V35.65H18.93v2.21ZM44.17,2.1C44.17.94,42.29,0,40,0s-4.2.94-4.2,2.1V6.41h8.41ZM25.24,27.24H16.83v6.41h8.41ZM61,8.41H46.27V56.89H71.51V50.48ZM37.86,56.79V50.48H4.21v2.1H2.1v-2.1a1,1,0,0,0-2.1,0v6.31a1.05,1.05,0,0,0,2.1,0v-2.1H4.21v2.1ZM14.72,48.48H29.45V44.27H14.72Zm4.82-30.17a2.09,2.09,0,0,1-.53-2L17.42,14.7a4.19,4.19,0,0,0,5.74,5.74l-1.59-1.59A2.12,2.12,0,0,1,19.54,18.31Zm-1.48-4.46,0,0,0,0Zm.85-.64,1.58,1.59a2.09,2.09,0,0,1,2.57,2.56L24.65,19a4.19,4.19,0,0,0-5.74-5.74Zm25.36-4.8H8.41V25.24H44.27ZM25.5,21.29a6.31,6.31,0,1,1,0-8.93A6.33,6.33,0,0,1,25.5,21.29ZM8.41,69.41,25.24,84.13H71.51V58.89H8.41ZM51.53,65.2H64.15a1,1,0,0,1,0,2.1H51.53a1,1,0,0,1,0-2.1Zm0,4.21H64.15a1.05,1.05,0,0,1,0,2.1H51.53a1.05,1.05,0,1,1,0-2.1Zm0,4.2H64.15a1.06,1.06,0,0,1,0,2.11H51.53a1.06,1.06,0,0,1,0-2.11ZM23.14,63.1A2.1,2.1,0,1,1,21,65.2,2.1,2.1,0,0,1,23.14,63.1Zm-6.31,0a2.1,2.1,0,1,1-2.11,2.1A2.1,2.1,0,0,1,16.83,63.1Z"/></g></g></svg>