<svg xmlns="http://www.w3.org/2000/svg" viewBox="0 0 93.34 70.01"><defs><style>.cls-1{fill:#5a6e78;}</style></defs><title>Maschine 10</title><g id="Ebene_2" data-name="Ebene 2"><g id="_ŽÓť_4" data-name="—ŽÓť_4"><path class="cls-1" d="M91.4,2H31.17V29.17H93.34V3.89A1.94,1.94,0,0,0,91.4,2ZM35,18.47a1,1,0,1,1-1.94,0V12.64a1,1,0,1,1,1.94,0Zm48.62,1a1.94,1.94,0,0,1-1.94,1.94H40.84a2,2,0,0,1-2-1.94V9.72a2,2,0,0,1,2-1.94H81.68a1.94,1.94,0,0,1,1.94,1.94Zm5.83-1a1,1,0,1,1-1.94,0V12.64a1,1,0,0,1,1.94,0ZM31.17,44.73a3.88,3.88,0,0,1-.5,1.88,1.61,1.61,0,0,0,.44.06H91.4a2,2,0,0,0,1.94-1.94V31.17H31.17ZM6.41,35.81a1.94,1.94,0,1,0,2.75,0A1.94,1.94,0,0,0,6.41,35.81Zm11.66,0a1.94,1.94,0,1,0,2.75,0A1.94,1.94,0,0,0,18.07,35.81Zm11.1,8.92V2a2,2,0,0,0-2-1.95H2A2,2,0,0,0,0,2V44.73a2,2,0,0,0,2,1.94H27.22A2,2,0,0,0,29.17,44.73ZM5.84,5.83h17.5v5.84H5.84ZM19.45,19.45a1.95,1.95,0,1,1,1.94-1.95A1.95,1.95,0,0,1,19.45,19.45Zm1.94,3.88a1.95,1.95,0,1,1-1.94-1.94A1.94,1.94,0,0,1,21.39,23.33ZM7.78,15.56A1.95,1.95,0,1,1,5.84,17.5,2,2,0,0,1,7.78,15.56Zm0,5.83a1.95,1.95,0,1,1-1.94,1.94A2,2,0,0,1,7.78,21.39Zm2.75,18.54a3.89,3.89,0,1,1-.86-6.13l2.23-.74-.74,2.23A3.87,3.87,0,0,1,10.53,39.93Zm3.09-14.65a1.95,1.95,0,1,1,1.94-2A1.95,1.95,0,0,1,13.62,25.28Zm0-5.83a1.95,1.95,0,1,1,1.94-1.95A1.95,1.95,0,0,1,13.62,19.45ZM22.2,39.93a3.89,3.89,0,1,1-.86-6.13l2.23-.74-.74,2.23A3.87,3.87,0,0,1,22.2,39.93Zm8,8.63-1.27-.3a3.83,3.83,0,0,1-1.72.41H3.89V70H29.17l3.89-9.72H72L75.84,70H91.4V48.67H31.11A3.57,3.57,0,0,1,30.21,48.56ZM22.36,61.29H10.7a1,1,0,0,1,0-1.95H22.36a1,1,0,1,1,0,1.95Zm0-3.9H10.7a1,1,0,0,1,0-1.94H22.36a1,1,0,1,1,0,1.94Zm0-3.88H10.7a1,1,0,0,1,0-1.95H22.36a1,1,0,1,1,0,1.95Z"/></g></g></svg>