<svg xmlns="http://www.w3.org/2000/svg" viewBox="0 0 95.29 71.95"><defs><style>.cls-1{fill:#5a6e78;}</style></defs><title>Maschine 11</title><g id="Ebene_2" data-name="Ebene 2"><g id="_ŽÓť_3" data-name="—ŽÓť_3"><path class="cls-1" d="M31.11,50.56H73.9a2,2,0,0,0,1.94-1.94V2A2,2,0,0,0,73.9,0H31.11a2,2,0,0,0-1.94,2V48.62A1.94,1.94,0,0,0,31.11,50.56ZM70,41.81a1,1,0,0,1-2,0V36a1,1,0,1,1,2,0ZM35,9.72a2,2,0,0,1,2-1.94H68.06a2,2,0,0,1,2,1.94V25.28a2,2,0,0,1-2,1.95H37a2,2,0,0,1-2-1.95ZM35,36a1,1,0,1,1,2,0v5.83a1,1,0,0,1-2,0ZM6.4,39.46a1.94,1.94,0,1,0,2.75,0A1.94,1.94,0,0,0,6.4,39.46ZM27.17,2H1.94A1.94,1.94,0,0,0,0,3.89V46.67a2,2,0,0,0,1.94,1.95H27.17ZM5.83,7.78H21.39v5.83H5.83ZM19.45,29.17a1.95,1.95,0,1,1-1.95,1.95A1.94,1.94,0,0,1,19.45,29.17ZM17.5,25.28a1.95,1.95,0,1,1,1.94,1.95A1.94,1.94,0,0,1,17.5,25.28Zm1.95-3.89a1.95,1.95,0,1,1,1.94-1.94A1.94,1.94,0,0,1,19.45,21.39Zm-5.84,0a1.95,1.95,0,1,1,2-1.94A1.94,1.94,0,0,1,13.61,21.39Zm2,3.89a1.95,1.95,0,1,1-2-1.94A2,2,0,0,1,15.56,25.28ZM9.72,19.45A1.95,1.95,0,1,1,7.78,17.5,1.94,1.94,0,0,1,9.72,19.45ZM7.78,23.34a1.95,1.95,0,1,1-1.95,1.94A1.94,1.94,0,0,1,7.78,23.34Zm1.94,7.78a1.95,1.95,0,1,1-1.94-1.95A1.94,1.94,0,0,1,9.72,31.12Zm.81,12.47a3.89,3.89,0,1,1-.86-6.13l2.23-.75L11.16,39A3.87,3.87,0,0,1,10.53,43.59Zm3.08-10.53a1.95,1.95,0,1,1,2-1.94A1.94,1.94,0,0,1,13.61,33.06ZM22.2,43.59a3.89,3.89,0,1,1-.86-6.13l2.23-.75L22.83,39A3.9,3.9,0,0,1,22.2,43.59ZM93.34,2H77.84V48.62h15.5a2,2,0,0,0,2-1.95V3.89A2,2,0,0,0,93.34,2ZM18.07,39.46a1.94,1.94,0,1,0,2.75,0A1.94,1.94,0,0,0,18.07,39.46ZM73.9,52.56H31.11a4,4,0,0,1-3.38-1.94H3.89V72H29.17l3.89-9.72H72L75.84,72H91.4V50.62H77.28A4,4,0,0,1,73.9,52.56ZM22.36,63.23H10.7a1,1,0,1,1,0-1.94H22.36a1,1,0,1,1,0,1.94Zm0-3.89H10.7a1,1,0,1,1,0-1.94H22.36a1,1,0,0,1,0,1.94Zm0-3.89H10.7a1,1,0,1,1,0-1.94H22.36a1,1,0,0,1,0,1.94Z"/></g></g></svg>