<svg xmlns="http://www.w3.org/2000/svg" viewBox="0 0 89.45 79.73"><defs><style>.cls-1{fill:#5a6e78;}</style></defs><title>Maschine 7</title><g id="Ebene_2" data-name="Ebene 2"><g id="_ŽÓť_7" data-name="—ŽÓť_7"><path class="cls-1" d="M46.67,37H44.73V33.06H42.78V37h-2l-.94,1.89h7.73ZM35,42.78V58.34a2,2,0,0,0,2,1.95H58.34a2,2,0,0,0,1.94-1.95V42.78a1.94,1.94,0,0,0-1.94-1.94H37A2,2,0,0,0,35,42.78Zm19.45,1.95a1.95,1.95,0,1,1-1.94,1.94A2,2,0,0,1,54.45,44.73Zm-9.73,0a5.84,5.84,0,1,1-5.83,5.83A5.83,5.83,0,0,1,44.72,44.73Zm0,7.78a2,2,0,0,1-1.67-1H41a3.87,3.87,0,0,0,7.51,0H46.4A2,2,0,0,1,44.72,52.51Zm0-3.89a1.94,1.94,0,0,1,1.68,1h2.08a3.87,3.87,0,0,0-7.51,0h2.08A1.94,1.94,0,0,1,44.72,48.62ZM25.34,57.79a4.89,4.89,0,0,1-.05.55H33V54.51H25.34ZM33,44.73H25.34v1.89H33Zm40.84,9.78H62.28v3.83H73.84ZM33,48.62H25.34v3.89H33Zm40.84,0H62.28v3.89H73.84Zm4-5.89h5.83V40.89H72v3.84H62.28v1.89H73.85A3.94,3.94,0,0,1,77.79,42.73ZM33.06,29.17H29.17V27.23H25.28V40.84h3.89v-2h3.89ZM85.57,44.73H77.79a2,2,0,0,0-2,1.94V58.34a2,2,0,0,0,2,1.95h7.78a2,2,0,0,0,1.94-1.95V46.67A1.94,1.94,0,0,0,85.57,44.73Zm2.91-13.62a1,1,0,0,0-1,1V34H85.57V31.11H70v7.78H85.57V36h1.94v1.94a1,1,0,0,0,1.94,0V32.09A1,1,0,0,0,88.48,31.11ZM68,37V33.06H66.12l-2,1.94,2,2ZM42.78,25.28V23.39H38.89v1.89l2,1.95ZM37,19.5v1.89h7.78V17.56H42.1A7.77,7.77,0,0,1,37,19.5ZM27.23,9.78v5.78h2.92a7.8,7.8,0,0,1-1-3.89,7.89,7.89,0,0,1,.23-1.89Zm4.18-3.65a7.82,7.82,0,0,1,11.08,0,7.64,7.64,0,0,1,1.25,1.65h4.88V0H33.06L9.72,1.94V7.78H30.15A8,8,0,0,1,31.41,6.13Zm15.26,9.43V9.78H44.54a7.42,7.42,0,0,1,.24,1.89,7.71,7.71,0,0,1-1,3.89ZM19.45,9.78H9.22L5.85,23.28h13.6Zm21.62,6a5.83,5.83,0,1,0-8.25,0A5.83,5.83,0,0,0,41.07,15.79ZM39.7,14.42h0Zm0-5.5a3.87,3.87,0,0,1,.59,4.71l-1.47-1.46A1.93,1.93,0,0,0,36.45,9.8L35,8.33A3.88,3.88,0,0,1,39.7,8.92Zm-6.09.78,1.47,1.47a1.93,1.93,0,0,0,2.37,2.37L38.91,15a3.87,3.87,0,0,1-5.3-5.31ZM23.34,57.79v-30a2.29,2.29,0,0,0-1.95-2.5H1.94A2.29,2.29,0,0,0,0,27.78v30a2.29,2.29,0,0,0,1.94,2.5H21.39A2.29,2.29,0,0,0,23.34,57.79ZM7.78,50.56a1.95,1.95,0,1,1,1.94-1.94A2,2,0,0,1,7.78,50.56Zm7.78,0a1.95,1.95,0,1,1,1.94-1.94A1.94,1.94,0,0,1,15.56,50.56ZM17.5,35a2.08,2.08,0,0,1-.5-.07l-2,2a3.88,3.88,0,1,1-7.23,2A3.89,3.89,0,0,1,11.67,35a3.85,3.85,0,0,1,2,.55l2-2a2.08,2.08,0,0,1-.07-.5A1.95,1.95,0,1,1,17.5,35ZM74.41,60.34H61.72a3.94,3.94,0,0,1-3.38,1.95H37a3.94,3.94,0,0,1-3.38-1.95h-9a3.78,3.78,0,0,1-3.21,1.95H3.89V79.73H27.23l3.89-11.67H68.06L73.9,79.73H85.57V62.29H77.79A3.91,3.91,0,0,1,74.41,60.34Zm-52,14.56H10.7a1,1,0,1,1,0-2H22.36a1,1,0,1,1,0,2Zm0-3.89H10.7a1,1,0,1,1,0-2H22.36a1,1,0,1,1,0,2Zm0-3.89H10.7a1,1,0,1,1,0-2H22.36a1,1,0,1,1,0,2Z"/></g></g></svg>