<svg xmlns="http://www.w3.org/2000/svg" viewBox="0 0 52.58 84.13"><defs><style>.cls-1{fill:#5a6e78;}</style></defs><title>Maschine 1</title><g id="Ebene_2" data-name="Ebene 2"><g id="_ŽÓť_13" data-name="—ŽÓť_13"><path class="cls-1" d="M18.06,26.73a2.11,2.11,0,1,0-3,0A2.11,2.11,0,0,0,18.06,26.73Zm-7.54,9H35.76a2.11,2.11,0,0,0,2.1-2.1V28.4H40v4.81c0,1.08.47,2,1,2s1.06-.88,1.06-2V21.47c0-1.07-.47-1.95-1.06-1.95s-1,.88-1,1.95v4.82h-2.1V16.83a2.11,2.11,0,0,0-2.1-2.11H10.52a2.12,2.12,0,0,0-2.11,2.11V33.66A2.11,2.11,0,0,0,10.52,35.76Zm15.7-13.49a4.19,4.19,0,0,1,5-.69l2.41-.8-.8,2.42a4.2,4.2,0,1,1-6.63-.93Zm-12.62,0a4.19,4.19,0,0,1,5-.69l2.41-.8-.8,2.42a4.2,4.2,0,1,1-6.63-.93Zm17.08,4.46a2.11,2.11,0,1,0-3,0A2.11,2.11,0,0,0,30.68,26.73ZM29.45,71.51,38,63H8.31l8.51,8.51ZM27.34,2.1C27.34.94,25.46,0,23.13,0s-4.2.94-4.2,2.1V6.41h8.41ZM16.82,52.69V37.76h-3V52.69Zm15.63,0V37.76h-3V52.69Zm-3-44.28H16.82v4.31H29.45Zm0,65.1H16.82v6.42H0v4.2H46.27v-4.2H29.45ZM27.34,37.76H18.93v4.31h8.41ZM50.48,50.48H44.17a2.11,2.11,0,0,0-2.1,2.1V67.31a2.11,2.11,0,0,0,2.1,2.1h6.31a2.11,2.11,0,0,0,2.1-2.1V52.58A2.11,2.11,0,0,0,50.48,50.48ZM47.32,65.21a2.11,2.11,0,1,1,2.11-2.11A2.11,2.11,0,0,1,47.32,65.21Zm0-6.32a2.1,2.1,0,1,1,2.11-2.1A2.1,2.1,0,0,1,47.32,58.89ZM23.13,48.38l2.11-2.1V44.07H21v2.21Zm16.94,6.31H2.1V61h38Z"/></g></g></svg>