<svg xmlns="http://www.w3.org/2000/svg" viewBox="0 0 87.51 77.79"><defs><style>.cls-1{fill:#5a6e78;}</style></defs><title>Maschine 6</title><g id="Ebene_2" data-name="Ebene 2"><g id="_ŽÓť_8" data-name="—ŽÓť_8"><path class="cls-1" d="M15.56,54.39H62.23v-3.5H15.56ZM75.84,25.28V17.5a1.94,1.94,0,0,0-1.94-1.94H66.12a2,2,0,0,0-2,1.94v7.78a2,2,0,0,0,2,1.94H73.9A1.94,1.94,0,0,0,75.84,25.28ZM3.89,27.22h7.78a1.94,1.94,0,0,0,1.94-1.94V17.5a1.94,1.94,0,0,0-1.94-1.94H3.89A2,2,0,0,0,1.94,17.5v7.78A2,2,0,0,0,3.89,27.22Zm33.06,4v5.72h3.89V31.17ZM31.12,42.78v3.89H46.67V42.78l-3.89-3.89H35ZM3.89,13.56h7.78V9.72H66.12v3.84H73.9V9.72h1.94V7.29L69.69,0H8.1L2,7.29V9.72H3.89ZM66.12,54.39H68V33.94a4.65,4.65,0,0,1,3.1-4.72h-5ZM3.89,29.22V54.39h7.78V29.22H3.89ZM62.17,17.5H15.61v7.78H33.06v3.89H44.73V25.28H62.17ZM78.86,44.73a1.95,1.95,0,1,0,2,1.94A1.94,1.94,0,0,0,78.86,44.73Zm6.71-13.62H72c-1.07,0-1.94,1.28-1.94,2.83V59.4c0,1.55.87,2.83,1.94,2.83H85.57c1.06,0,1.94-1.28,1.94-2.83V33.94C87.51,32.39,86.63,31.11,85.57,31.11ZM75.84,58.34a1.95,1.95,0,1,1,2-2A1.94,1.94,0,0,1,75.84,58.34ZM75,46.67a3.9,3.9,0,0,1,2.84-3.73l1-2.1,1.06,2.1a3.88,3.88,0,1,1-5,3.73Zm6.71,11.67a1.95,1.95,0,1,1,1.94-2A1.95,1.95,0,0,1,81.68,58.34Zm1.94-19.45H73.9V35h9.72ZM68,59.4v-3H0v21.4H23.34l3.89-9.73H50.56l3.89,9.73H85.57V64.23H72C69.74,64.23,68,62.11,68,59.4ZM18.48,72H6.81a1,1,0,1,1,0-1.94H18.48a1,1,0,1,1,0,1.94Zm0-3.89H6.81a1,1,0,1,1,0-1.94H18.48a1,1,0,1,1,0,1.94Zm0-3.89H6.81a1,1,0,1,1,0-1.94H18.48a1,1,0,1,1,0,1.94Z"/></g></g></svg>