<svg xmlns="http://www.w3.org/2000/svg" viewBox="0 0 97.23 70"><defs><style>.cls-1{fill:#5a6e78;}</style></defs><title>Maschine 12</title><g id="Ebene_2" data-name="Ebene 2"><g id="_ŽÓť_2" data-name="—ŽÓť_2"><path class="cls-1" d="M83.56,44.78H75.89A3.94,3.94,0,0,1,72,48.67H50.56a3.94,3.94,0,0,1-3.94-3.89H7.78V70H31.11L35,58.34H72L77.79,70H89.45V48.67H87.51A4,4,0,0,1,83.56,44.78ZM26.25,58.34H14.58a1,1,0,0,1,0-2H26.25a1,1,0,0,1,0,2Zm0-3.89H14.58a1,1,0,0,1,0-2H26.25a1,1,0,0,1,0,2Zm0-3.89H14.58a1,1,0,0,1,0-2H26.25a1,1,0,0,1,0,2ZM91.4,31.11H87.51a2,2,0,0,0-2,2V44.72a2,2,0,0,0,2,2H91.4a2,2,0,0,0,1.94-2V33.06A2,2,0,0,0,91.4,31.11ZM35,40.84V33.06a2,2,0,0,0-1.94-2H35a2,2,0,0,0,2-1.94V2A2,2,0,0,0,35,0H1.94A1.94,1.94,0,0,0,0,2V29.17a1.94,1.94,0,0,0,1.94,1.94H5.83a2,2,0,0,0-1.94,2v7.78a1.94,1.94,0,0,0,1.94,1.94H33.06A1.94,1.94,0,0,0,35,40.84ZM13.61,27.22a1.95,1.95,0,1,1,2-1.94A1.94,1.94,0,0,1,13.61,27.22Zm2-13.61a3.94,3.94,0,1,1-1.93-3.34l2-2a2,2,0,0,1-.07-.49A1.95,1.95,0,1,1,17.5,9.72a2.08,2.08,0,0,1-.5-.07l-2,2A3.82,3.82,0,0,1,15.56,13.61Zm3.89,25.28A1.95,1.95,0,1,1,21.39,37,1.94,1.94,0,0,1,19.45,38.89Zm1.94-11.67a1.95,1.95,0,1,1,1.94-1.94A1.94,1.94,0,0,1,21.39,27.22Zm5.83,11.67a1.95,1.95,0,1,1,2-1.94A1.94,1.94,0,0,1,27.22,38.89Zm2-11.67a1.95,1.95,0,1,1,1.94-1.94A2,2,0,0,1,29.17,27.22Zm1.95-17.5a2,2,0,0,1-.5-.07l-2,2a3.82,3.82,0,0,1,.55,2,3.92,3.92,0,1,1-1.92-3.34l2-2a2,2,0,0,1-.07-.49,1.95,1.95,0,1,1,1.95,1.94ZM42.78,21.39h3.89V9.72H42.78V7.78H38.89V23.34h3.89Zm17.5-1.94H58.34V15.56h-2v3.89H54.45L53,25.22h8.72ZM58.34,35A1.93,1.93,0,0,1,60,36h2.08a3.87,3.87,0,0,0-7.5,0h2.07A2,2,0,0,1,58.34,35ZM50.56,46.67H72a2,2,0,0,0,2-2V29.17a2,2,0,0,0-2-2H50.56a2,2,0,0,0-1.94,2V44.72A2,2,0,0,0,50.56,46.67Zm17.5-15.56a1.95,1.95,0,1,1-1.94,2A2,2,0,0,1,68.06,31.11Zm-9.72,0A5.84,5.84,0,1,1,52.51,37,5.83,5.83,0,0,1,58.34,31.11Zm0,7.78a1.91,1.91,0,0,1-1.67-1H54.59a3.87,3.87,0,0,0,7.5,0H60A1.91,1.91,0,0,1,58.34,38.89ZM46.62,33V31.11H38.43A4,4,0,0,1,37,32.58,3,3,0,0,1,37,33Zm31.17-1.89H75.9V33h7.67a3.94,3.94,0,0,1,3.94-3.89H91.4a3.87,3.87,0,0,1,1.94.54V25.28H77.79ZM83.56,35H75.9v3.89h7.66Zm0,5.89H75.9v1.89h7.66ZM46.62,35H37v3.89h9.62ZM36.47,42.78H46.62V40.89H37A3.91,3.91,0,0,1,36.47,42.78ZM96.26,11.67a1,1,0,0,0-1,1v1.94h-2V11.67H77.79v7.78h1.94v3.83H91.4V19.45h1.94V16.53h2v1.94a1,1,0,1,0,1.94,0V12.64A1,1,0,0,0,96.26,11.67ZM75.79,17.5V13.61H73.9l-2,2,2,1.94Z"/></g></g></svg>