<svg xmlns="http://www.w3.org/2000/svg" viewBox="0 0 71.51 84.13"><defs><style>.cls-1{fill:#5a6e78;}</style></defs><title>Maschine 4</title><g id="Ebene_2" data-name="Ebene 2"><g id="_ŽÓť_10" data-name="—ŽÓť_10"><path class="cls-1" d="M38.91,27.34a2.09,2.09,0,0,1,1.81,1.05H43a4.19,4.19,0,0,0-8.12,0H37.1A2.12,2.12,0,0,1,38.91,27.34ZM30.5,40H53.64a2.11,2.11,0,0,0,2.1-2.1V21a2.11,2.11,0,0,0-2.1-2.1H30.5A2.11,2.11,0,0,0,28.4,21V37.86A2.1,2.1,0,0,0,30.5,40ZM49.43,23.13a2.11,2.11,0,1,1-2.1,2.11A2.11,2.11,0,0,1,49.43,23.13Zm-10.52,0a6.32,6.32,0,1,1-6.31,6.32A6.31,6.31,0,0,1,38.91,23.13Zm0,10.52A4.2,4.2,0,0,0,43,30.5H40.73a2.09,2.09,0,0,1-3.63,0H34.85A4.2,4.2,0,0,0,38.91,33.65ZM49.43,2.1C49.43.94,47.55,0,45.22,0S41,.94,41,2.1V6.41h8.41Zm-44.06,40H15.66a2.58,2.58,0,0,0,2.57-2.57v-18a2.58,2.58,0,0,0-2.57-2.57H5.37A2.58,2.58,0,0,0,2.8,21.5v18A2.58,2.58,0,0,0,5.37,42.06Zm5.15-16.82a2.1,2.1,0,1,1-2.11,2.1A2.1,2.1,0,0,1,10.52,25.24Zm0,6.31a2.11,2.11,0,1,1-2.11,2.1A2.1,2.1,0,0,1,10.52,31.55Zm4.2,12.51H6.31V54.79h8.41Zm0-35.65c0-1.16-1.88-2.1-4.2-2.1s-4.21.94-4.21,2.1v8.52h8.41Zm28.4,43.07,2.1-2.1V47.17H41v2.21ZM67.31,23.13H57.74v9.48l9.57-1.06ZM51.53,8.41H34.71v8.52H51.53ZM18.82,75.32l39-5.12v-3h-39ZM26.4,23.13H20.23V36.78l6.17-.69ZM18.82,65.2H59.94V63.1h2.11v2.1a1.05,1.05,0,1,0,2.1,0V58.89a1,1,0,0,0-2.1,0V61H59.94V58.89H18.71a6.78,6.78,0,0,1,.11,1.2ZM47.33,42H38.91v3.21h8.42ZM4.21,60.09V76.62a5.05,5.05,0,0,0,.17,1.31H16.65a5.05,5.05,0,0,0,.17-1.31V60.09c0-1.81-.94-3.3-2.1-3.3H6.31C5.15,56.79,4.21,58.28,4.21,60.09ZM0,79.93v4.2H71.51v-4.2Zm36.81-23H49.43v-4.2H36.81Z"/></g></g></svg>