<svg xmlns="http://www.w3.org/2000/svg" viewBox="0 0 59.15 84.9"><defs><style>.cls-1{fill:#5a6e78;}</style></defs><title>Maschine 2</title><g id="Ebene_2" data-name="Ebene 2"><g id="_ŽÓť_12" data-name="—ŽÓť_12"><path class="cls-1" d="M15.92,5.8C15.92,4.26,22,3,29.57,3S43.23,4.26,43.23,5.8V37.4h3V5.8C46.23,2,40.62,0,29.57,0S12.92,2,12.92,5.8V37.4h3ZM0,39.4V44H59.15V39.4ZM36.4,21.48H33a3.42,3.42,0,0,1-6.83,0H22.75a6.83,6.83,0,0,0,13.65,0Zm-6.83-11.1a9.1,9.1,0,0,0-9.1,9.1h18.2A9.09,9.09,0,0,0,29.57,10.38Zm-9.1,27h18.2V32.85H20.47Zm-1.6,21.81A2.26,2.26,0,0,1,18.28,57L16.57,55.3a4.53,4.53,0,0,0,6.2,6.21l-1.72-1.72A2.26,2.26,0,0,1,18.87,59.21Zm31.18-13H9.1a2.14,2.14,0,0,0-2.28,1.94V83A2.14,2.14,0,0,0,9.1,84.9H50.05A2.13,2.13,0,0,0,52.32,83V48.16A2.13,2.13,0,0,0,50.05,46.22ZM18.2,73.52a2.27,2.27,0,1,1,2.27-2.27A2.27,2.27,0,0,1,18.2,73.52Zm6.82,0a2.27,2.27,0,1,1,2.28-2.27A2.26,2.26,0,0,1,25,73.52Zm.28-11.09a6.82,6.82,0,1,1,0-9.65A6.83,6.83,0,0,1,25.3,62.43ZM46.63,80.35H33a1.14,1.14,0,1,1,0-2.27H46.63a1.14,1.14,0,1,1,0,2.27Zm0-4.55H33a1.14,1.14,0,1,1,0-2.28H46.63a1.14,1.14,0,1,1,0,2.28Zm0-4.55H33A1.14,1.14,0,1,1,33,69H46.63a1.14,1.14,0,1,1,0,2.27ZM45.5,55.32a2.2,2.2,0,0,1-.58-.08l-2.34,2.34a4.47,4.47,0,0,1,.65,2.3,4.56,4.56,0,1,1-4.56-4.56A4.5,4.5,0,0,1,41,56l2.34-2.34a2.27,2.27,0,1,1,2.19,1.69ZM18.18,53.69l1.71,1.72a2.25,2.25,0,0,1,2.77,2.77l1.72,1.72a4.53,4.53,0,0,0-6.2-6.21Z"/></g></g></svg>